<svg xmlns="http://www.w3.org/2000/svg" width="19" height="19" viewBox="0 0 19 19">
  <defs>
    <style>
      .cls-1 {
        fill: #fff1e4;
      }

      .cls-2 {
        fill: none;
      }

      .cls-3 {
        fill: #ff8000;
      }
    </style>
  </defs>
  <g id="Group_1" data-name="Group 1" transform="translate(-388 -56)">
    <circle id="Ellipse_5" data-name="Ellipse 5" class="cls-1" cx="9.5" cy="9.5" r="9.5" transform="translate(388 56)"/>
    <g id="groups_black_24dp" transform="translate(390 57.781)">
      <rect id="Rectangle_9" data-name="Rectangle 9" class="cls-2" width="14.262" height="14.262" transform="translate(0 0.219)"/>
      <g id="Group_3" data-name="Group 3" transform="translate(0 3.668)">
        <path id="Path_8" data-name="Path 8" class="cls-3" d="M7.209,10.055a6.375,6.375,0,0,1,2.547.541,1.793,1.793,0,0,1,1.057,1.64v.973H3.6v-.967A1.78,1.78,0,0,1,4.662,10.6,6.272,6.272,0,0,1,7.209,10.055Zm-4.806.15A1.2,1.2,0,1,0,1.2,9,1.205,1.205,0,0,0,2.4,10.205Zm.679.661a4.2,4.2,0,0,0-.679-.06,4.176,4.176,0,0,0-1.67.348A1.208,1.208,0,0,0,0,12.266v.943H2.7v-.967A2.7,2.7,0,0,1,3.082,10.866Zm8.934-.661a1.2,1.2,0,1,0-1.2-1.2A1.205,1.205,0,0,0,12.016,10.205Zm2.4,2.061a1.208,1.208,0,0,0-.733-1.111,4.084,4.084,0,0,0-2.349-.288,2.7,2.7,0,0,1,.378,1.376v.967h2.7ZM7.209,6a1.8,1.8,0,1,1-1.8,1.8A1.8,1.8,0,0,1,7.209,6Z" transform="translate(0 -6)"/>
      </g>
    </g>
  </g>
</svg>
