<svg id="shop" xmlns="http://www.w3.org/2000/svg" width="19" height="19" viewBox="0 0 19 19">
  <defs>
    <style>
      .cls-1 {
        fill: #ffede1;
      }

      .cls-2 {
        fill: none;
      }

      .cls-3 {
        fill: #ff8000;
      }
    </style>
  </defs>
  <circle id="Ellipse_2" data-name="Ellipse 2" class="cls-1" cx="9.5" cy="9.5" r="9.5"/>
  <g id="storefront_black_24dp" transform="translate(4 3.051)">
    <g id="Group_4" data-name="Group 4" transform="translate(0 0.457)">
      <rect id="Rectangle_10" data-name="Rectangle 10" class="cls-2" width="11" height="11" transform="translate(0 0.492)"/>
    </g>
    <g id="Group_6" data-name="Group 6" transform="translate(0.988 1.606)">
      <g id="Group_5" data-name="Group 5">
        <path id="Path_9" data-name="Path 9" class="cls-3" d="M11.8,5.9l-.517-2.152A.967.967,0,0,0,10.346,3H3.5a.967.967,0,0,0-.936.749L2.052,5.9a1.662,1.662,0,0,0,.305,1.418,1.888,1.888,0,0,0,.138.143V10.88a.988.988,0,0,0,.985.985h6.9a.988.988,0,0,0,.985-.985V7.462a1.822,1.822,0,0,0,.138-.138A1.657,1.657,0,0,0,11.8,5.9ZM10.331,3.98l.517,2.152a.668.668,0,0,1-.123.576.578.578,0,0,1-.463.231.616.616,0,0,1-.6-.561L9.381,3.985Zm-2.911,0h.965l.266,2.226a.662.662,0,0,1-.163.527.587.587,0,0,1-.468.2.627.627,0,0,1-.6-.645ZM5.2,6.211,5.47,3.985h.965v2.31A.633.633,0,0,1,5.8,6.94a.593.593,0,0,1-.438-.2A.7.7,0,0,1,5.2,6.211ZM3.007,6.132l.5-2.147h.97L4.19,6.379a.619.619,0,0,1-.6.561.567.567,0,0,1-.458-.231A.651.651,0,0,1,3.007,6.132ZM3.48,10.88V7.91a.892.892,0,0,0,.113.015,1.541,1.541,0,0,0,1.1-.468,1.584,1.584,0,0,0,1.138.468,1.561,1.561,0,0,0,1.1-.458,1.614,1.614,0,0,0,1.128.458,1.564,1.564,0,0,0,1.1-.468,1.541,1.541,0,0,0,1.1.468.892.892,0,0,0,.113-.015v2.97Z" transform="translate(-2.005 -3)"/>
      </g>
    </g>
  </g>
</svg>
