<svg xmlns="http://www.w3.org/2000/svg" width="19" height="19" viewBox="0 0 19 19">
  <defs>
    <style>
      .cls-1 {
        fill: #ffe9f8;
      }

      .cls-2 {
        fill: none;
      }

      .cls-3 {
        fill: #ff50a2;
      }
    </style>
  </defs>
  <g id="Group_2" data-name="Group 2" transform="translate(-190 -55)">
    <circle id="Ellipse_8" data-name="Ellipse 8" class="cls-1" cx="9.5" cy="9.5" r="9.5" transform="translate(190 55)"/>
    <g id="groups_black_24dp" transform="translate(192 56.781)">
      <rect id="Rectangle_9" data-name="Rectangle 9" class="cls-2" width="14.946" height="14.946" transform="translate(0 0.219)"/>
      <g id="Group_3" data-name="Group 3" transform="translate(0 3.833)">
        <path id="Path_8" data-name="Path 8" class="cls-3" d="M7.555,10.25a6.68,6.68,0,0,1,2.669.567,1.879,1.879,0,0,1,1.108,1.719v1.02H3.777V12.541a1.866,1.866,0,0,1,1.108-1.719A6.573,6.573,0,0,1,7.555,10.25Zm-5.037.157A1.259,1.259,0,1,0,1.259,9.148,1.263,1.263,0,0,0,2.518,10.407Zm.711.693a4.4,4.4,0,0,0-.711-.063,4.376,4.376,0,0,0-1.75.365A1.266,1.266,0,0,0,0,12.566v.988H2.833V12.541A2.832,2.832,0,0,1,3.23,11.1Zm9.362-.693a1.259,1.259,0,1,0-1.259-1.259A1.263,1.263,0,0,0,12.591,10.407Zm2.518,2.159a1.266,1.266,0,0,0-.768-1.165,4.28,4.28,0,0,0-2.462-.3,2.832,2.832,0,0,1,.4,1.442v1.014H15.11ZM7.555,6A1.889,1.889,0,1,1,5.666,7.889,1.886,1.886,0,0,1,7.555,6Z" transform="translate(0 -6)"/>
      </g>
    </g>
  </g>
</svg>
