<svg xmlns="http://www.w3.org/2000/svg" width="19" height="19" viewBox="0 0 19 19">
  <defs>
    <style>
      .cls-1 {
        fill: #ffe8e8;
      }

      .cls-2 {
        fill: none;
      }

      .cls-3 {
        fill: red;
      }
    </style>
  </defs>
  <g id="magnifier" transform="translate(-190 -140)">
    <circle id="Ellipse_11" data-name="Ellipse 11" class="cls-1" cx="9.5" cy="9.5" r="9.5" transform="translate(190 140)"/>
    <g id="pageview_black_24dp" transform="translate(193 143)">
      <path id="Path_22" data-name="Path 22" class="cls-2" d="M0,0H12.325V12.325H0Z"/>
      <path id="Path_23" data-name="Path 23" class="cls-3" d="M6.879,6.568A1.284,1.284,0,1,0,8.163,7.852,1.284,1.284,0,0,0,6.879,6.568ZM11.244,4H3.027A1.03,1.03,0,0,0,2,5.027V11.19a1.03,1.03,0,0,0,1.027,1.027h8.217a1.03,1.03,0,0,0,1.027-1.027V5.027A1.03,1.03,0,0,0,11.244,4ZM9.6,11.3,8.1,9.8a2.277,2.277,0,0,1-1.227.359A2.326,2.326,0,1,1,8.83,9.079l1.494,1.489L9.6,11.3Z" transform="translate(-0.973 -1.946)"/>
    </g>
  </g>
</svg>
